<?xml version="1.0" encoding="UTF-8" standalone="no"?>
<!DOCTYPE svg PUBLIC "-//W3C//DTD SVG 20010904//EN"
              "http://www.w3.org/TR/2001/REC-SVG-20010904/DTD/svg10.dtd">

<svg xmlns="http://www.w3.org/2000/svg"
     width="299.471mm" height="178.836mm"
     viewBox="0 0 1132 676">
  <path id="Selection"
        fill="fuchsia" stroke="black" stroke-width="1"
        d="M 547.00,256.21
           C 547.00,256.21 572.00,256.21 572.00,256.21
             572.00,256.21 609.00,257.29 609.00,257.29
             614.80,258.00 626.56,259.79 630.43,264.22
             634.63,269.03 635.67,285.36 636.03,292.00
             636.03,292.00 638.00,315.00 638.00,315.00
             638.00,315.00 638.00,353.00 638.00,353.00
             637.85,365.74 633.74,392.38 630.63,405.00
             629.18,410.86 628.17,419.52 620.99,420.77
             610.89,422.53 596.13,408.65 587.00,403.43
             569.36,393.33 542.01,385.28 522.00,381.00
             522.00,381.00 511.00,378.45 511.00,378.45
             505.52,377.34 496.00,376.83 494.74,369.98
             494.13,366.67 496.57,360.30 497.67,357.00
             500.26,349.21 502.23,342.09 503.74,334.00
             505.68,323.57 507.98,303.44 507.96,293.00
             507.96,293.00 507.96,279.00 507.96,279.00
             507.63,274.89 506.78,272.62 507.04,268.00
             507.48,260.47 512.20,258.59 519.00,258.09
             519.00,258.09 533.00,257.04 533.00,257.04
             533.00,257.04 547.00,256.21 547.00,256.21 Z" />
</svg>
