<?xml version="1.0" encoding="UTF-8" standalone="no"?>
<!DOCTYPE svg PUBLIC "-//W3C//DTD SVG 20010904//EN"
              "http://www.w3.org/TR/2001/REC-SVG-20010904/DTD/svg10.dtd">

<svg xmlns="http://www.w3.org/2000/svg"
     width="299.471mm" height="178.836mm"
     viewBox="0 0 1132 676">
  <path id="Selection"
        fill="powderblue" stroke="black" stroke-width="1"
        d="M 617.00,286.21
           C 617.00,286.21 636.00,286.21 636.00,286.21
             647.66,286.02 649.86,289.41 650.00,301.00
             650.00,301.00 649.00,358.00 649.00,358.00
             649.00,358.00 647.13,379.00 647.13,379.00
             646.59,382.71 646.21,385.88 642.87,388.26
             640.03,390.28 636.31,389.99 633.00,390.00
             633.00,390.00 614.00,390.00 614.00,390.00
             614.00,390.00 598.00,389.00 598.00,389.00
             598.00,389.00 587.00,389.00 587.00,389.00
             587.00,389.00 566.00,387.08 566.00,387.08
             557.08,386.37 546.18,385.39 538.00,381.69
             529.64,377.91 522.24,371.05 516.46,364.00
             504.92,349.92 495.72,331.69 488.58,315.00
             486.56,310.29 481.18,300.94 484.74,296.28
             488.06,291.93 501.70,292.06 507.00,292.00
             507.00,292.00 521.00,291.00 521.00,291.00
             521.00,291.00 560.00,289.00 560.00,289.00
             560.00,289.00 577.00,287.96 577.00,287.96
             577.00,287.96 589.00,287.96 589.00,287.96
             589.00,287.96 600.00,287.00 600.00,287.00
             605.70,286.97 611.34,287.23 617.00,286.21 Z" />
</svg>
