<?xml version="1.0" encoding="UTF-8" standalone="no"?>
<svg
   xmlns:svg="http://www.w3.org/2000/svg"
   xmlns="http://www.w3.org/2000/svg"
   width="56.142818mm"
   height="56.142818mm"
   viewBox="0 0 212.21978 269.30879"
   version="1.1"
   id="svg20">
  
  <path
     id="Selection"
     fill="yellow"
     stroke="#000000"
     stroke-width="1"
     d="m 21.5,0.93962245 c 11.74,-2.35999995 33.31,5.46000005 45,9.35999955 0,0 89,29.58 89,29.58 0,0 30,7.08 30,7.08 4.24,0.92 10.29,2.04 12.99,5.68 3.15,4.24 2.83,11.63 3.05,16.66 0,0 0.87,8 0.87,8 0,0 1.37,20 1.37,20 0,0 0.81,13.999998 0.81,13.999998 0,0 0.91,10 0.91,10 0,0 2,29 2,29 0,0 1,25 1,25 0,0 1,16 1,16 0,0 1,28 1,28 0,0 1,14 1,14 0.06,5.86 1.23,20.49 -2.51,24.72 -3.5,3.98 -15.3,4.27 -20.49,4.28 0,0 -41,1 -41,1 0,0 -19,1 -19,1 0,0 -10,0.96 -10,0.96 0,0 -10,0 -10,0 0,0 -15,1.04 -15,1.04 0,0 -25,1.28 -25,1.28 -6.64,0.79 -20.67,3.04 -25.61,-1.7 -3.29,-3.15 -6.59,-13.03 -8.05,-17.58 0,0 -11.22,-38 -11.22,-38 -9.09,-34.47 -16.49,-69.53 -20.28,-105 0,0 -2.84,-32.999998 -2.84,-32.999998 0,0 0,-25 0,-25 0.19,-16.06 4.09,-39.9799995 21,-46.35999955 z" />
</svg>
