<?xml version="1.0" encoding="UTF-8" standalone="no"?>
<!DOCTYPE svg PUBLIC "-//W3C//DTD SVG 20010904//EN"
              "http://www.w3.org/TR/2001/REC-SVG-20010904/DTD/svg10.dtd">

<svg xmlns="http://www.w3.org/2000/svg"
     width="299.471mm" height="178.836mm"
     viewBox="0 0 1132 676">
  <path id="Selection"
        fill="yellow" stroke="black" stroke-width="1"
        d="M 481.00,204.64
           C 492.74,202.28 514.31,210.10 526.00,214.00
             526.00,214.00 615.00,243.58 615.00,243.58
             615.00,243.58 645.00,250.66 645.00,250.66
             649.24,251.58 655.29,252.70 657.99,256.34
             661.14,260.58 660.82,267.97 661.04,273.00
             661.04,273.00 661.91,281.00 661.91,281.00
             661.91,281.00 663.28,301.00 663.28,301.00
             663.28,301.00 664.09,315.00 664.09,315.00
             664.09,315.00 665.00,325.00 665.00,325.00
             665.00,325.00 667.00,354.00 667.00,354.00
             667.00,354.00 668.00,379.00 668.00,379.00
             668.00,379.00 669.00,395.00 669.00,395.00
             669.00,395.00 670.00,423.00 670.00,423.00
             670.00,423.00 671.00,437.00 671.00,437.00
             671.06,442.86 672.23,457.49 668.49,461.72
             664.99,465.70 653.19,465.99 648.00,466.00
             648.00,466.00 607.00,467.00 607.00,467.00
             607.00,467.00 588.00,468.00 588.00,468.00
             588.00,468.00 578.00,468.96 578.00,468.96
             578.00,468.96 568.00,468.96 568.00,468.96
             568.00,468.96 553.00,470.00 553.00,470.00
             553.00,470.00 528.00,471.28 528.00,471.28
             521.36,472.07 507.33,474.32 502.39,469.58
             499.10,466.43 495.80,456.55 494.34,452.00
             494.34,452.00 483.12,414.00 483.12,414.00
             474.03,379.53 466.63,344.47 462.84,309.00
             462.84,309.00 460.00,276.00 460.00,276.00
             460.00,276.00 460.00,251.00 460.00,251.00
             460.19,234.94 464.09,211.02 481.00,204.64 Z" />
</svg>
