<?xml version="1.0" encoding="UTF-8" standalone="no"?>
<!DOCTYPE svg PUBLIC "-//W3C//DTD SVG 20010904//EN"
              "http://www.w3.org/TR/2001/REC-SVG-20010904/DTD/svg10.dtd">

<svg xmlns="http://www.w3.org/2000/svg"
     width="299.471mm" height="178.836mm"
     viewBox="0 0 1132 676">
  <path id="Selection"
        fill="cyan" stroke="black" stroke-width="1"
        d="M 448.05,295.91
           C 454.99,294.02 462.02,295.43 469.00,295.91
             469.00,295.91 478.00,295.91 478.00,295.91
             478.00,295.91 509.00,298.83 509.00,298.83
             551.39,302.89 593.87,307.48 635.00,319.29
             648.90,323.28 663.11,328.20 676.00,334.76
             679.82,336.70 687.90,340.75 689.16,345.02
             690.85,350.79 681.98,352.82 678.00,353.76
             678.00,353.76 637.00,361.42 637.00,361.42
             599.06,367.31 561.17,371.52 523.00,375.17
             523.00,375.17 498.00,378.00 498.00,378.00
             498.00,378.00 490.00,378.00 490.00,378.00
             490.00,378.00 459.00,381.00 459.00,381.00
             455.47,381.04 449.19,381.55 446.42,379.26
             443.25,376.65 442.75,369.92 442.28,366.00
             442.28,366.00 441.00,328.00 441.00,328.00
             441.01,322.75 442.13,303.00 444.31,299.11
             445.52,296.95 446.11,296.90 448.05,295.91 Z" />
</svg>
