<?xml version="1.0" encoding="UTF-8" standalone="no"?>
<!DOCTYPE svg PUBLIC "-//W3C//DTD SVG 20010904//EN"
              "http://www.w3.org/TR/2001/REC-SVG-20010904/DTD/svg10.dtd">

<svg xmlns="http://www.w3.org/2000/svg"
     width="299.471mm" height="178.836mm"
     viewBox="0 0 1132 676">
  <path id="Selection"
        fill="cornflowerblue" stroke="black" stroke-width="1"
        d="M 500.00,284.14
           C 500.00,284.14 536.00,284.14 536.00,284.14
             536.00,284.14 597.00,284.14 597.00,284.14
             597.00,284.14 612.00,285.00 612.00,285.00
             612.00,285.00 656.00,285.83 656.00,285.83
             660.64,286.27 667.86,285.00 671.28,288.65
             674.65,292.26 673.28,299.46 672.92,304.00
             672.92,304.00 672.00,342.00 672.00,342.00
             672.01,350.03 677.07,368.21 669.87,372.91
             666.54,375.09 661.85,374.91 658.00,375.42
             658.00,375.42 647.00,376.09 647.00,376.09
             647.00,376.09 623.00,378.08 623.00,378.08
             623.00,378.08 532.00,385.83 532.00,385.83
             532.00,385.83 512.00,387.28 512.00,387.28
             512.00,387.28 477.00,391.07 477.00,391.07
             472.11,391.52 465.53,392.36 461.28,389.15
             455.83,385.03 459.22,368.43 459.96,362.00
             459.96,362.00 459.96,352.00 459.96,352.00
             459.96,352.00 461.00,340.00 461.00,340.00
             461.00,340.00 461.00,297.00 461.00,297.00
             461.02,286.25 463.68,285.02 474.00,285.00
             474.00,285.00 500.00,284.14 500.00,284.14 Z" />
</svg>
