<?xml version="1.0" encoding="UTF-8" standalone="no"?>
<!DOCTYPE svg PUBLIC "-//W3C//DTD SVG 20010904//EN"
              "http://www.w3.org/TR/2001/REC-SVG-20010904/DTD/svg10.dtd">

<svg xmlns="http://www.w3.org/2000/svg"
     width="299.471mm" height="178.836mm"
     viewBox="0 0 1132 676">
  <path id="Selection"
        fill="orange" stroke="black" stroke-width="1"
        d="M 450.11,232.74
           C 456.65,231.08 466.94,233.43 474.00,233.91
             474.00,233.91 509.00,236.00 509.00,236.00
             509.00,236.00 526.00,237.00 526.00,237.00
             526.00,237.00 564.00,237.00 564.00,237.00
             564.00,237.00 579.00,236.00 579.00,236.00
             579.00,236.00 595.00,236.00 595.00,236.00
             595.00,236.00 625.00,234.00 625.00,234.00
             625.00,234.00 644.00,233.00 644.00,233.00
             649.60,232.94 658.42,231.36 662.96,234.09
             667.99,237.11 669.21,242.86 671.05,248.00
             674.92,258.79 678.55,271.76 680.80,283.00
             685.01,304.05 686.03,317.66 686.00,339.00
             685.97,355.99 680.29,386.51 677.25,404.00
             677.25,404.00 672.92,428.00 672.92,428.00
             672.16,432.49 671.67,437.43 667.87,440.49
             664.53,443.18 660.06,443.08 656.00,442.99
             656.00,442.99 642.00,442.00 642.00,442.00
             642.00,442.00 620.00,441.00 620.00,441.00
             620.00,441.00 478.00,441.00 478.00,441.00
             472.78,441.03 465.68,442.96 461.21,440.43
             456.89,437.99 457.03,433.33 457.00,429.00
             457.00,429.00 456.04,417.00 456.04,417.00
             456.04,417.00 456.04,405.00 456.04,405.00
             456.04,405.00 454.96,390.00 454.96,390.00
             454.96,390.00 454.96,377.00 454.96,377.00
             454.96,377.00 454.00,365.00 454.00,365.00
             454.00,365.00 452.09,332.00 452.09,332.00
             452.09,332.00 448.83,277.00 448.83,277.00
             448.83,277.00 446.90,256.00 446.90,256.00
             446.90,256.00 446.90,247.00 446.90,247.00
             446.03,241.20 444.41,236.36 450.11,232.74 Z" />
</svg>
