<?xml version="1.0" encoding="UTF-8" standalone="no"?>
<!DOCTYPE svg PUBLIC "-//W3C//DTD SVG 20010904//EN"
              "http://www.w3.org/TR/2001/REC-SVG-20010904/DTD/svg10.dtd">

<svg xmlns="http://www.w3.org/2000/svg"
     width="299.471mm" height="178.836mm"
     viewBox="0 0 1132 676">
  <path id="Selection"
        fill="orchid" stroke="black" stroke-width="1"
        d="M 563.00,182.21
           C 563.00,182.21 592.00,182.21 592.00,182.21
             601.22,182.04 616.48,183.97 622.15,192.04
             627.49,199.65 623.25,205.38 624.33,212.00
             624.33,212.00 632.80,233.00 632.80,233.00
             654.30,287.33 654.48,356.62 641.12,413.00
             641.12,413.00 625.00,468.00 625.00,468.00
             623.24,473.17 618.81,486.16 614.79,489.30
             610.89,492.35 596.29,492.99 591.00,493.00
             591.00,493.00 545.00,493.00 545.00,493.00
             545.00,493.00 526.00,494.00 526.00,494.00
             520.50,493.97 514.74,493.89 514.12,486.98
             513.81,483.45 515.80,475.79 516.65,472.00
             516.65,472.00 520.72,449.00 520.72,449.00
             523.23,428.84 523.03,409.27 523.00,389.00
             523.00,389.00 522.09,377.00 522.09,377.00
             522.09,377.00 517.27,335.00 517.27,335.00
             513.28,307.88 506.06,273.09 497.98,247.00
             497.98,247.00 493.35,234.00 493.35,234.00
             493.35,234.00 485.81,211.00 485.81,211.00
             484.13,206.58 481.31,199.51 484.60,195.22
             487.80,191.04 499.75,190.12 505.00,189.25
             505.00,189.25 543.00,184.17 543.00,184.17
             543.00,184.17 563.00,182.21 563.00,182.21 Z" />
</svg>
