<?xml version="1.0" encoding="UTF-8" standalone="no"?>
<!DOCTYPE svg PUBLIC "-//W3C//DTD SVG 20010904//EN"
              "http://www.w3.org/TR/2001/REC-SVG-20010904/DTD/svg10.dtd">

<svg xmlns="http://www.w3.org/2000/svg"
     width="299.471mm" height="178.836mm"
     viewBox="0 0 1132 676">
  <path id="Selection"
        fill="red" stroke="black" stroke-width="1"
        d="M 606.00,296.42
           C 611.64,295.79 618.73,296.34 621.69,302.04
             623.63,305.80 623.83,320.19 624.04,325.00
             624.78,342.13 629.80,373.94 607.00,378.98
             604.25,379.59 601.83,380.02 599.00,379.82
             580.44,378.50 564.82,372.73 551.00,359.91
             551.00,359.91 531.71,338.17 531.71,338.17
             531.71,338.17 520.04,328.82 520.04,328.82
             515.14,324.31 508.47,315.70 507.33,309.00
             506.74,305.55 506.90,301.21 510.23,299.17
             512.69,297.67 518.07,297.97 521.00,298.00
             521.00,298.00 533.00,298.98 533.00,298.98
             533.00,298.98 549.00,298.00 549.00,298.00
             549.00,298.00 583.00,298.00 583.00,298.00
             583.00,298.00 595.00,297.09 595.00,297.09
             595.00,297.09 606.00,296.42 606.00,296.42 Z" />
</svg>
