<?xml version="1.0" encoding="UTF-8" standalone="no"?>
<!DOCTYPE svg PUBLIC "-//W3C//DTD SVG 20010904//EN"
              "http://www.w3.org/TR/2001/REC-SVG-20010904/DTD/svg10.dtd">

<svg xmlns="http://www.w3.org/2000/svg"
     width="299.471mm" height="178.836mm"
     viewBox="0 0 1132 676">
  <path id="Selection"
        fill="red" stroke="black" stroke-width="1"
        d="M 533.02,300.20
           C 538.61,299.55 548.89,300.00 555.00,300.20
             555.00,300.20 592.00,300.20 592.00,300.20
             592.00,300.20 598.00,300.20 598.00,300.20
             610.28,302.49 601.21,315.50 601.18,323.00
             601.18,323.00 601.79,331.00 601.79,331.00
             601.25,341.27 594.07,362.63 586.82,369.81
             583.87,372.73 580.03,374.61 576.00,375.48
             567.14,377.39 559.10,373.15 553.04,366.98
             543.57,357.36 533.55,337.48 531.95,324.00
             530.62,312.81 522.30,305.01 533.02,300.20 Z" />
</svg>
