<?xml version="1.0" encoding="UTF-8" standalone="no"?>
<!DOCTYPE svg PUBLIC "-//W3C//DTD SVG 20010904//EN"
              "http://www.w3.org/TR/2001/REC-SVG-20010904/DTD/svg10.dtd">

<svg xmlns="http://www.w3.org/2000/svg"
     width="299.471mm" height="178.836mm"
     viewBox="0 0 1132 676">
  <path id="Selection"
        fill="lawngreen" stroke="black" stroke-width="1"
        d="M 534.00,304.00
           C 549.51,308.48 585.31,307.03 603.00,307.00
             603.00,307.00 627.00,306.00 627.00,306.00
             629.39,306.00 632.78,305.87 634.98,306.74
             642.11,309.54 642.21,321.38 642.95,328.00
             642.95,328.00 645.00,358.00 645.00,358.00
             645.00,358.00 645.92,371.00 645.92,371.00
             645.92,371.00 645.04,379.00 645.04,379.00
             645.04,379.00 645.04,388.00 645.04,388.00
             644.98,401.84 640.65,424.76 636.33,438.00
             632.67,449.23 632.16,455.28 619.00,454.99
             619.00,454.99 584.00,450.28 584.00,450.28
             584.00,450.28 567.00,448.83 567.00,448.83
             567.00,448.83 551.00,447.04 551.00,447.04
             551.00,447.04 511.00,444.09 511.00,444.09
             505.52,443.71 497.51,445.03 493.53,440.70
             488.47,435.70 492.67,420.47 493.53,414.00
             493.53,414.00 503.09,354.00 503.09,354.00
             503.09,354.00 504.00,342.00 504.00,342.00
             504.04,314.03 503.39,296.44 495.71,269.00
             495.71,269.00 489.05,248.00 489.05,248.00
             487.76,244.42 486.08,238.89 487.74,235.21
             489.27,231.81 492.74,231.37 496.00,230.87
             496.00,230.87 517.00,229.00 517.00,229.00
             517.00,229.00 534.00,227.00 534.00,227.00
             534.00,227.00 542.00,227.00 542.00,227.00
             542.00,227.00 589.00,222.19 589.00,222.19
             595.85,221.18 611.52,217.82 616.78,222.19
             620.38,225.58 624.10,238.96 625.58,244.00
             627.45,250.40 633.72,268.28 630.69,273.89
             627.70,279.42 611.16,280.90 605.00,282.21
             581.06,287.30 556.53,292.31 534.00,302.00
             534.00,302.00 534.00,304.00 534.00,304.00 Z" />
</svg>
