<?xml version="1.0" encoding="UTF-8" standalone="no"?>
<!DOCTYPE svg PUBLIC "-//W3C//DTD SVG 20010904//EN"
              "http://www.w3.org/TR/2001/REC-SVG-20010904/DTD/svg10.dtd">

<svg xmlns="http://www.w3.org/2000/svg"
     width="299.471mm" height="178.836mm"
     viewBox="0 0 1132 676">
  <path id="Selection"
        fill="lawngreen" stroke="black" stroke-width="1"
        d="M 606.00,305.43
           C 608.82,305.16 611.19,304.82 613.61,306.74
             616.95,309.39 621.97,326.13 623.73,331.00
             625.46,336.01 628.48,341.06 623.73,345.39
             618.69,350.07 604.90,353.65 598.00,355.72
             598.00,355.72 551.00,366.20 551.00,366.20
             551.00,366.20 523.02,370.97 523.02,370.97
             516.80,370.87 516.37,367.33 515.21,362.00
             515.21,362.00 507.00,332.00 507.00,332.00
             505.86,328.52 502.85,321.92 506.44,319.14
             509.16,317.03 514.70,317.16 518.00,316.83
             518.00,316.83 541.00,314.96 541.00,314.96
             541.00,314.96 606.00,305.43 606.00,305.43 Z" />
</svg>
