<?xml version="1.0" encoding="UTF-8" standalone="no"?>
<!DOCTYPE svg PUBLIC "-//W3C//DTD SVG 20010904//EN"
              "http://www.w3.org/TR/2001/REC-SVG-20010904/DTD/svg10.dtd">

<svg xmlns="http://www.w3.org/2000/svg"
     width="299.471mm" height="178.836mm"
     viewBox="0 0 1132 676">
  <path id="Selection"
        fill="palegreen" stroke="black" stroke-width="1"
        d="M 662.00,309.74
           C 664.82,310.00 666.45,310.12 668.58,312.30
             671.91,315.70 676.80,334.79 677.29,340.00
             677.77,345.03 675.78,348.92 670.98,350.85
             667.11,352.42 663.04,351.78 659.00,352.17
             659.00,352.17 635.00,354.98 635.00,354.98
             635.00,354.98 573.00,363.83 573.00,363.83
             573.00,363.83 553.00,365.00 553.00,365.00
             553.00,365.00 536.00,366.04 536.00,366.04
             536.00,366.04 524.00,366.04 524.00,366.04
             524.00,366.04 513.00,367.00 513.00,367.00
             513.00,367.00 496.00,367.00 496.00,367.00
             496.00,367.00 480.00,366.00 480.00,366.00
             480.00,366.00 473.00,366.00 473.00,366.00
             469.54,365.99 455.79,365.60 460.83,358.53
             463.12,355.31 470.26,353.77 474.00,352.71
             474.00,352.71 510.00,343.63 510.00,343.63
             510.00,343.63 607.00,324.35 607.00,324.35
             607.00,324.35 644.00,314.86 644.00,314.86
             650.55,312.98 655.18,310.33 662.00,309.74 Z" />
</svg>
