<?xml version="1.0" encoding="UTF-8" standalone="no"?>
<!DOCTYPE svg PUBLIC "-//W3C//DTD SVG 20010904//EN"
              "http://www.w3.org/TR/2001/REC-SVG-20010904/DTD/svg10.dtd">

<svg xmlns="http://www.w3.org/2000/svg"
     width="299.471mm" height="178.836mm"
     viewBox="0 0 1132 676">
  <path id="Selection #1"
        fill="lightpink" stroke="black" stroke-width="1"
        d="M 601.00,313.42
           C 605.30,312.90 616.25,312.04 619.61,314.74
             622.37,316.95 623.33,321.69 624.12,325.00
             624.12,325.00 628.92,350.00 628.92,350.00
             629.57,353.99 630.60,358.12 627.35,361.35
             624.17,364.52 619.92,363.40 616.00,362.75
             608.83,361.57 601.26,360.03 594.00,360.00
             594.00,360.00 548.00,360.00 548.00,360.00
             548.00,360.00 520.00,362.00 520.00,362.00
             516.45,362.04 511.14,362.46 508.22,360.26
             506.13,358.69 505.28,356.45 504.60,354.00
             503.31,348.41 500.68,332.62 504.60,328.28
             508.16,324.14 524.10,323.45 530.00,322.58
             530.00,322.58 581.00,315.28 581.00,315.28
             581.00,315.28 601.00,313.42 601.00,313.42 Z" />
</svg>
